<svg xmlns="http://www.w3.org/2000/svg" xmlns:xlink="http://www.w3.org/1999/xlink" viewBox="0 0 673.7 122.9"><defs><style>.cls-1{fill:#0051ff;}.cls-2{fill:url(#linear-gradient);}</style><linearGradient id="linear-gradient" x1="68.59" y1="62.2" x2="149.28" y2="62.2" gradientUnits="userSpaceOnUse"><stop offset="0" stop-color="#ec0c43"/><stop offset="1" stop-color="#ff9100"/></linearGradient></defs><g id="brand_style_guide" data-name="brand style guide"><path class="cls-1" d="M24.8,41.7a24.5,24.5,0,0,1,11.8-2.9,21.7,21.7,0,0,1,10.3,2.4A18.5,18.5,0,0,1,52,44.9a6.3,6.3,0,0,0,7.9.8,6.1,6.1,0,0,0,2.8-4.6,6.3,6.3,0,0,0-1.8-5.2,28.8,28.8,0,0,0-7.3-5.4,36.8,36.8,0,0,0-16.8-3.8,39.3,39.3,0,0,0-19,4.6A33.8,33.8,0,0,0,4.7,43.9,35.9,35.9,0,0,0,0,62.2,35.9,35.9,0,0,0,4.7,80.5,34,34,0,0,0,17.8,93.2a38.2,38.2,0,0,0,19,4.6,35.6,35.6,0,0,0,16.8-3.9A26.9,26.9,0,0,0,61,88.4a6.3,6.3,0,0,0-1.2-9.7,6.4,6.4,0,0,0-7.8.9,21.2,21.2,0,0,1-5.1,3.8,21.7,21.7,0,0,1-10.3,2.4,24.5,24.5,0,0,1-11.8-2.9,20.9,20.9,0,0,1-8.1-8.3,24.7,24.7,0,0,1-3-12.4,24.9,24.9,0,0,1,3-12.3A20.6,20.6,0,0,1,24.8,41.7Z"/><path class="cls-1" d="M219.8,0A6.7,6.7,0,0,0,213,6.8V36.6a26.3,26.3,0,0,0-9.3-7,30.7,30.7,0,0,0-13.3-2.9,35.7,35.7,0,0,0-17.8,4.5,31.7,31.7,0,0,0-12.4,12.5,36.3,36.3,0,0,0,0,37.1,31.7,31.7,0,0,0,12.4,12.5,35.7,35.7,0,0,0,17.8,4.5,30.8,30.8,0,0,0,13.7-3,26.9,26.9,0,0,0,9.4-7.5v3.2A6.5,6.5,0,0,0,220,97a6.6,6.6,0,0,0,6.6-6.5V6.8A6.8,6.8,0,0,0,219.8,0ZM202.4,82.8a20.7,20.7,0,0,1-11,3,21.6,21.6,0,0,1-11.2-3,21.8,21.8,0,0,1-7.9-8.3,25.7,25.7,0,0,1-2.9-12.3,26,26,0,0,1,2.9-12.3,20.8,20.8,0,0,1,7.9-8.2,21.5,21.5,0,0,1,11.2-2.9,20.6,20.6,0,0,1,11,2.9,20,20,0,0,1,7.8,8.2,26,26,0,0,1,2.9,12.3,25.7,25.7,0,0,1-2.9,12.3,20.9,20.9,0,0,1-7.8,8.3Z"/><path class="cls-1" d="M287.4,31.3a35.2,35.2,0,0,0-17.8-4.6,35.6,35.6,0,0,0-17.9,4.6A31.8,31.8,0,0,0,239.2,44a37,37,0,0,0-4.6,18.2,36.5,36.5,0,0,0,4.7,18.4,32.9,32.9,0,0,0,13.2,12.7,41.6,41.6,0,0,0,19.6,4.5,40.9,40.9,0,0,0,15.6-2.9,34.6,34.6,0,0,0,7.7-4.5,5.9,5.9,0,0,0,.8-8.5,5.9,5.9,0,0,0-8.1-.9c-4.2,3.2-9.5,4.8-15.7,4.8s-12-1.8-16.4-5.4a20.3,20.3,0,0,1-7.6-13.3v-.2h51.2a4.3,4.3,0,0,0,4.3-4.3A37.6,37.6,0,0,0,299.6,44,31.7,31.7,0,0,0,287.4,31.3Zm4,25.3-.7.2H248.3a21.2,21.2,0,0,1,6.8-13,22.5,22.5,0,0,1,29,0,21.4,21.4,0,0,1,6.8,13Z"/><path class="cls-1" d="M398.2,26.7a35.6,35.6,0,0,0-15.8,3.5,26.5,26.5,0,0,0-10.5,8.7,22.8,22.8,0,0,0-9.3-8.9,31,31,0,0,0-14.5-3.3A33.8,33.8,0,0,0,334,29.6a24.9,24.9,0,0,0-8.9,6.8V33.9a6.6,6.6,0,0,0-6.6-6.5,6.5,6.5,0,0,0-6.5,6.5V90.5a6.5,6.5,0,0,0,6.5,6.5h.6a6.5,6.5,0,0,0,6.5-6.5V61.2q0-10.8,5.4-16.5c3.6-3.8,8.4-5.7,14.5-5.7s9.8,1.7,12.7,4.9,4.4,8.1,4.4,14.6v32a6.6,6.6,0,0,0,6.6,6.5h.5a6.5,6.5,0,0,0,6.5-6.5V61.2q0-10.8,5.4-16.5c3.6-3.8,8.5-5.7,14.6-5.7s9.7,1.7,12.6,4.9,4.5,8.1,4.5,14.6v32a6.5,6.5,0,0,0,6.5,6.5h.5a6.5,6.5,0,0,0,6.5-6.5V57c0-9.9-2.6-17.5-7.7-22.6S407,26.7,398.2,26.7Z"/><path class="cls-1" d="M465.4,26.7A53.9,53.9,0,0,0,449.6,29a50.5,50.5,0,0,0-8.5,3.6,6.1,6.1,0,0,0-2.2,8,5.9,5.9,0,0,0,8.1,2.3,52.7,52.7,0,0,1,5.3-2.3,36,36,0,0,1,11.7-2c5.8,0,10.3,1.4,13.3,4.2s4.4,6.6,4.4,11.8v1.7a.1.1,0,0,1-.1.1H462.7c-9.7,0-16.9,1.9-21.3,5.7a18.6,18.6,0,0,0-6.8,15,18.5,18.5,0,0,0,7.1,15c4.7,3.8,11,5.7,18.8,5.7a34,34,0,0,0,13.8-2.6,20.5,20.5,0,0,0,8.1-6v1.4a6.5,6.5,0,0,0,12.9,0V55.1c0-9.3-2.6-16.5-7.7-21.2S475,26.7,465.4,26.7Zm16.3,40v8.7a17.4,17.4,0,0,1-7.2,8.6,23,23,0,0,1-12,3c-4.5,0-8.2-.9-10.7-2.8a9.1,9.1,0,0,1-3.8-7.7c0-6.7,5-10,15.2-10h18.4A.3.3,0,0,1,481.7,66.7Z"/><path class="cls-1" d="M568.4,27.4a6.5,6.5,0,0,0-6.4,6.5v3a26.8,26.8,0,0,0-9.8-7.3,34.5,34.5,0,0,0-14-2.9,35.8,35.8,0,0,0-17.4,4.2,30.2,30.2,0,0,0-12.4,11.9,33.8,33.8,0,0,0-4.6,17.6,33.2,33.2,0,0,0,4.6,17.5,29.8,29.8,0,0,0,12.4,12,34.8,34.8,0,0,0,17.4,4.3,32.4,32.4,0,0,0,13.4-2.7,25.4,25.4,0,0,0,9.7-6.9v3.8c0,7.6-1.8,13.2-5.5,16.9s-9.6,5.5-17.4,5.5a44.6,44.6,0,0,1-14.3-2.3,43.4,43.4,0,0,1-6-2.6,6.3,6.3,0,0,0-6.4,10.8,37.1,37.1,0,0,0,8.5,3.5,61,61,0,0,0,18.6,2.7c11.9,0,21-3,27-8.8s9.1-14.9,9.1-27V33.9A6.5,6.5,0,0,0,568.4,27.4Zm-6.8,33a20.9,20.9,0,0,1-3,11.2,19.7,19.7,0,0,1-7.9,7.8,22.3,22.3,0,0,1-11.1,2.7,23.3,23.3,0,0,1-11.3-2.7,19.7,19.7,0,0,1-7.9-7.8,21.7,21.7,0,0,1-2.9-11.2c0-6.7,2-11.8,6.1-15.6s9.4-6,16-6,11.1,1.8,15.6,6S561.6,54,561.6,60.4Z"/><path class="cls-1" d="M593.9,27.4a6.8,6.8,0,0,0-6.8,6.8v56a6.8,6.8,0,0,0,13.6,0v-56A6.7,6.7,0,0,0,593.9,27.4Z"/><path class="cls-1" d="M670.7,78.7a6.2,6.2,0,0,0-7.7.9,21.2,21.2,0,0,1-5.1,3.8,22.3,22.3,0,0,1-10.3,2.4,24,24,0,0,1-11.8-2.9,21.1,21.1,0,0,1-8.2-8.3,24.7,24.7,0,0,1-3-12.4,24.9,24.9,0,0,1,3-12.3,20.9,20.9,0,0,1,8.2-8.2,24,24,0,0,1,11.8-2.9,22.3,22.3,0,0,1,10.3,2.4,19.6,19.6,0,0,1,5,3.7,6.3,6.3,0,0,0,7.9.8,6.1,6.1,0,0,0,2.8-4.6,6.3,6.3,0,0,0-1.7-5.2,32.9,32.9,0,0,0-7.3-5.4,37.2,37.2,0,0,0-16.9-3.8,39.6,39.6,0,0,0-19,4.6,32.8,32.8,0,0,0-13,12.6,35,35,0,0,0-4.8,18.3,35,35,0,0,0,4.8,18.3,33.1,33.1,0,0,0,13,12.7,38.4,38.4,0,0,0,19,4.6,36,36,0,0,0,16.9-3.9,26.5,26.5,0,0,0,7.3-5.5,6.3,6.3,0,0,0-1.2-9.7Z"/><path class="cls-2" d="M145.3,55.9l-19.8-9.8a1.2,1.2,0,0,1-.5-.5l-9.8-19.8a7,7,0,0,0-12.6,0L92.9,45.6c-.1.3-.3.4-.6.6L72.5,55.9a7,7,0,0,0,0,12.6l19.9,9.8.5.5,9.7,19.8a7.1,7.1,0,0,0,12.7,0L125,78.8a1.2,1.2,0,0,1,.5-.5l19.8-9.8A7,7,0,0,0,145.3,55.9Zm-14.7,1.4-9.2,8a11.5,11.5,0,0,0-3.6,6.2l-2.3,11.9a.9.9,0,0,1-1.6.4l-8-9.1a10.9,10.9,0,0,0-6.2-3.6l-12-2.4a.9.9,0,0,1-.4-1.6l9.2-8a10.8,10.8,0,0,0,3.5-6.2L102.4,41a.9.9,0,0,1,1.6-.4l8,9.1a10.9,10.9,0,0,0,6.2,3.6l12,2.4A.9.9,0,0,1,130.6,57.3Z"/></g></svg>