<svg width="491" height="307" viewBox="0 0 491 285" fill="none" xmlns="http://www.w3.org/2000/svg">
<path fill-rule="evenodd" clip-rule="evenodd" d="M147 24C147 10.7452 157.745 0 171 0L262 0C275.255 0 286 10.7452 286 24V254C286 267.255 275.255 278 262 278H171C157.745 278 147 267.255 147 254V24Z" fill="#E5E5E9"/>
<path fill-rule="evenodd" clip-rule="evenodd" d="M153.454 36.2634C153.454 19.6948 166.885 6.26337 183.454 6.26337L250.043 6.26337C266.612 6.26337 280.043 19.6948 280.043 36.2634V241.736C280.043 258.305 266.612 271.737 250.043 271.737H183.454C166.885 271.737 153.454 258.305 153.454 241.736L153.454 36.2634Z" fill="#FAFAFA"/>
<mask id="mask0" mask-type="alpha" maskUnits="userSpaceOnUse" x="153" y="6" width="128" height="266">
<path fill-rule="evenodd" clip-rule="evenodd" d="M153.454 27.2636C153.454 15.6656 162.856 6.26355 174.454 6.26355L259.043 6.26355C270.641 6.26355 280.043 15.6656 280.043 27.2635V250.77C280.043 262.368 270.641 271.77 259.043 271.77H174.454C162.856 271.77 153.454 262.368 153.454 250.77L153.454 27.2636Z" fill="white"/>
</mask>
<g mask="url(#mask0)">
<mask id="mask1" mask-type="alpha" maskUnits="userSpaceOnUse" x="154" y="6" width="125" height="249">
<path d="M154.521 16.0852C154.521 10.6604 159.052 6.26276 164.64 6.26276L268.811 6.26276C274.399 6.26276 278.93 10.6604 278.93 16.0852V244.314C278.93 249.738 274.399 254.136 268.811 254.136H164.64C159.052 254.136 154.521 249.738 154.521 244.314L154.521 16.0852Z" fill="#CAD2DD"/>
</mask>
<g mask="url(#mask1)">
</g>
<g clip-path="url(#clip0)">
<rect width="126.718" height="265.522" transform="translate(153.376 6.18799)" fill="#FBFBFB"/>
<path opacity="0.03" d="M182.349 167.176C144.944 146.229 169.401 79.5974 133.023 78.6L149.876 283.682H294.156L300.938 72.8146C299.157 64.9012 289.593 50.9897 265.588 58.6503C235.581 68.2262 219.755 188.123 182.349 167.176Z" fill="#5D5D67"/>
<path opacity="0.1" d="M172.484 232.012C139.6 233.209 158.714 147.825 135.49 132.264L154.809 280.889L291.279 272.111L286.346 191.914C282.715 181.939 268.177 161.191 239.075 157.999C202.697 154.009 205.368 230.815 172.484 232.012Z" fill="#5D5D67" fill-opacity="0.5"/>
</g>
</g>
<g filter="url(#filter0_d)">
<rect x="163" y="75.1593" width="33.5089" height="33.5132" rx="10" fill="white"/>
<rect x="163.5" y="75.6593" width="32.5089" height="32.5132" rx="9.5" stroke="#F9F9F9"/>
</g>
<g filter="url(#filter1_d)">
<rect x="163" y="38.543" width="33.5089" height="33.5132" rx="10" fill="white"/>
<rect x="163.5" y="39.043" width="32.5089" height="32.5132" rx="9.5" stroke="#F9F9F9"/>
</g>
<g filter="url(#filter2_d)">
<rect x="200.232" y="75.1593" width="34.1295" height="33.5132" rx="10" fill="white"/>
<rect x="200.732" y="75.6593" width="33.1295" height="32.5132" rx="9.5" stroke="#F9F9F9"/>
</g>
<g filter="url(#filter3_d)">
<rect x="238.085" y="38.543" width="33.5089" height="33.5132" rx="10" fill="white"/>
<rect x="238.585" y="39.043" width="32.5089" height="32.5132" rx="9.5" stroke="#F9F9F9"/>
</g>
<g filter="url(#filter4_d)">
<path d="M200.448 45.2662C200.448 39.7433 204.925 35.2662 210.448 35.2662H224.577C230.1 35.2662 234.577 39.7433 234.577 45.2662V58.7794C234.577 64.3022 230.1 68.7794 224.577 68.7794H210.448C204.925 68.7794 200.448 64.3022 200.448 58.7794V45.2662Z" fill="url(#paint0_linear)"/>
</g>
<path d="M123.726 126.058C129.558 128.158 135.987 125.132 138.086 119.301C140.186 113.469 137.161 107.04 131.329 104.94C125.498 102.841 119.068 105.866 116.969 111.698C114.869 117.529 117.895 123.959 123.726 126.058Z" stroke="#FF9100" stroke-width="6" stroke-miterlimit="10"/>
<path d="M180.564 129.088L170.532 119.733L151.83 139.789L161.862 149.143L180.564 129.088Z" fill="#FF9100"/>
<path d="M177.458 137.068C180.228 139.651 184.568 139.5 187.151 136.73C189.734 133.96 189.583 129.62 186.813 127.037L172.298 113.501C169.528 110.918 165.188 111.069 162.605 113.84C160.022 116.61 160.173 120.949 162.943 123.533L177.458 137.068Z" fill="#FF9100"/>
<path d="M79.7775 277.886C123.837 293.748 172.415 270.889 188.278 226.828C204.141 182.767 181.282 134.189 137.222 118.327C93.1623 102.464 44.5854 125.324 28.7224 169.385C12.8595 213.446 35.7175 262.023 79.7775 277.886Z" fill="#FF9100"/>
<path d="M86.5356 259.114C120.229 271.244 157.376 253.764 169.506 220.07C181.637 186.376 164.157 149.229 130.464 137.098C96.771 124.968 59.6239 142.449 47.4934 176.143C35.3629 209.836 52.8426 246.984 86.5356 259.114Z" fill="url(#paint1_linear)" stroke="url(#paint2_linear)" stroke-width="6" stroke-miterlimit="10"/>
<path d="M105.614 206.123C110.041 207.717 114.923 205.42 116.517 200.993C118.111 196.565 115.814 191.683 111.386 190.089C106.959 188.495 102.077 190.792 100.483 195.22C98.889 199.648 101.186 204.529 105.614 206.123Z" fill="white" stroke="#FF9100" stroke-width="6" stroke-miterlimit="10"/>
<path d="M136.204 169.316L95.5277 211.438" stroke="white" stroke-width="6" stroke-linecap="round" stroke-linejoin="round"/>
<path d="M120.339 146.817L118.028 156.918" stroke="white" stroke-width="6" stroke-linecap="round" stroke-linejoin="round"/>
<path d="M99.0427 239.099L96.6336 249.165" stroke="white" stroke-width="6" stroke-linecap="round" stroke-linejoin="round"/>
<path d="M66.237 188.192L56.038 185.845" stroke="white" stroke-width="6" stroke-linecap="round" stroke-linejoin="round"/>
<path d="M158.482 209.585L148.416 207.176" stroke="white" stroke-width="6" stroke-linecap="round" stroke-linejoin="round"/>
<g filter="url(#filter5_d)">
<path d="M464.679 127H241.321C237.83 127 235 129.558 235 132.714V184.143C235 187.299 237.83 189.857 241.321 189.857H464.679C468.17 189.857 471 187.299 471 184.143V132.714C471 129.558 468.17 127 464.679 127Z" fill="white"/>
<path d="M464.679 127.476H241.321C238.121 127.476 235.527 129.821 235.527 132.714V184.143C235.527 187.036 238.121 189.381 241.321 189.381H464.679C467.879 189.381 470.473 187.036 470.473 184.143V132.714C470.473 129.821 467.879 127.476 464.679 127.476Z" stroke="#F9F9F9"/>
<path d="M255.237 172.132C254.533 172.132 253.876 171.956 253.268 171.604C252.659 171.245 252.171 170.764 251.805 170.163C251.445 169.562 251.266 168.913 251.266 168.216C251.266 167.519 251.445 166.874 251.805 166.28C252.171 165.679 252.659 165.202 253.268 164.85C253.876 164.491 254.533 164.311 255.237 164.311C255.779 164.311 256.296 164.421 256.788 164.641C257.286 164.854 257.723 165.151 258.097 165.532L257.118 166.445C256.876 166.174 256.59 165.961 256.26 165.807C255.937 165.646 255.596 165.565 255.237 165.565C254.782 165.565 254.357 165.686 253.961 165.928C253.565 166.17 253.249 166.496 253.015 166.907C252.78 167.31 252.663 167.747 252.663 168.216C252.663 168.693 252.78 169.136 253.015 169.547C253.249 169.95 253.565 170.273 253.961 170.515C254.357 170.757 254.782 170.878 255.237 170.878C255.596 170.878 255.937 170.801 256.26 170.647C256.59 170.493 256.876 170.277 257.118 169.998L258.097 170.9C257.73 171.289 257.297 171.593 256.799 171.813C256.307 172.026 255.787 172.132 255.237 172.132ZM261.829 172.132C261.279 172.132 260.769 172 260.3 171.736C259.83 171.465 259.456 171.102 259.178 170.647C258.906 170.185 258.771 169.686 258.771 169.151C258.771 168.616 258.906 168.121 259.178 167.666C259.456 167.211 259.83 166.852 260.3 166.588C260.769 166.317 261.279 166.181 261.829 166.181C262.379 166.181 262.885 166.317 263.347 166.588C263.816 166.852 264.186 167.211 264.458 167.666C264.729 168.121 264.865 168.616 264.865 169.151C264.865 169.686 264.729 170.185 264.458 170.647C264.186 171.102 263.816 171.465 263.347 171.736C262.885 172 262.379 172.132 261.829 172.132ZM261.829 170.988C262.137 170.988 262.423 170.907 262.687 170.746C262.951 170.577 263.16 170.354 263.314 170.075C263.468 169.789 263.545 169.481 263.545 169.151C263.545 168.821 263.468 168.517 263.314 168.238C263.16 167.959 262.951 167.739 262.687 167.578C262.423 167.409 262.137 167.325 261.829 167.325C261.513 167.325 261.224 167.409 260.96 167.578C260.696 167.739 260.483 167.959 260.322 168.238C260.168 168.517 260.091 168.821 260.091 169.151C260.091 169.481 260.168 169.789 260.322 170.075C260.483 170.354 260.696 170.577 260.96 170.746C261.224 170.907 261.513 170.988 261.829 170.988ZM271.447 164.311V172H270.105V171.109C269.885 171.432 269.602 171.685 269.258 171.868C268.92 172.044 268.546 172.132 268.136 172.132C267.637 172.132 267.19 172.007 266.794 171.758C266.398 171.501 266.086 171.146 265.859 170.691C265.631 170.236 265.518 169.723 265.518 169.151C265.518 168.579 265.631 168.069 265.859 167.622C266.086 167.167 266.398 166.815 266.794 166.566C267.19 166.309 267.637 166.181 268.136 166.181C268.546 166.181 268.92 166.273 269.258 166.456C269.602 166.632 269.885 166.881 270.105 167.204V164.311H271.447ZM268.499 170.988C268.807 170.988 269.082 170.911 269.324 170.757C269.573 170.596 269.764 170.376 269.896 170.097C270.035 169.818 270.105 169.503 270.105 169.151C270.105 168.616 269.954 168.179 269.654 167.842C269.353 167.497 268.968 167.325 268.499 167.325C268.015 167.325 267.619 167.497 267.311 167.842C267.003 168.179 266.849 168.616 266.849 169.151C266.849 169.686 267.003 170.126 267.311 170.471C267.619 170.816 268.015 170.988 268.499 170.988ZM275.383 171.054C275.676 171.054 275.966 170.999 276.252 170.889C276.545 170.779 276.784 170.636 276.967 170.46L277.737 171.252C277.495 171.509 277.154 171.721 276.714 171.89C276.274 172.051 275.845 172.132 275.427 172.132C274.884 172.132 274.386 172.004 273.931 171.747C273.476 171.49 273.113 171.135 272.842 170.68C272.578 170.225 272.446 169.712 272.446 169.14C272.446 168.575 272.574 168.069 272.831 167.622C273.088 167.175 273.436 166.823 273.876 166.566C274.323 166.309 274.815 166.181 275.35 166.181C276.223 166.181 276.905 166.482 277.396 167.083C277.895 167.684 278.144 168.506 278.144 169.547H273.744C273.817 170.002 274.001 170.368 274.294 170.647C274.587 170.918 274.95 171.054 275.383 171.054ZM275.372 167.259C274.969 167.259 274.62 167.387 274.327 167.644C274.034 167.893 273.843 168.231 273.755 168.656H276.846C276.78 168.238 276.619 167.901 276.362 167.644C276.113 167.387 275.783 167.259 275.372 167.259ZM285.627 166.181C286.015 166.181 286.367 166.276 286.683 166.467C287.005 166.65 287.255 166.911 287.431 167.248C287.614 167.578 287.706 167.956 287.706 168.381V172H286.397V168.601C286.397 168.227 286.294 167.923 286.089 167.688C285.883 167.446 285.616 167.325 285.286 167.325C284.926 167.325 284.629 167.439 284.395 167.666C284.16 167.886 284.043 168.168 284.043 168.513V172H282.745V168.601C282.745 168.227 282.638 167.923 282.426 167.688C282.22 167.446 281.956 167.325 281.634 167.325C281.274 167.325 280.977 167.439 280.743 167.666C280.508 167.886 280.391 168.168 280.391 168.513V172H279.049V166.313H280.391V167.083C280.537 166.804 280.746 166.584 281.018 166.423C281.296 166.262 281.612 166.181 281.964 166.181C282.338 166.181 282.675 166.265 282.976 166.434C283.284 166.603 283.529 166.841 283.713 167.149C283.911 166.848 284.175 166.614 284.505 166.445C284.835 166.269 285.209 166.181 285.627 166.181ZM291.277 166.181C292.025 166.181 292.615 166.401 293.048 166.841C293.488 167.274 293.708 167.853 293.708 168.579V172H292.399V171.329C292.193 171.578 291.929 171.776 291.607 171.923C291.284 172.062 290.954 172.132 290.617 172.132C290.213 172.132 289.85 172.059 289.528 171.912C289.212 171.758 288.963 171.545 288.78 171.274C288.596 170.995 288.505 170.676 288.505 170.317C288.505 169.95 288.607 169.624 288.813 169.338C289.018 169.052 289.297 168.828 289.649 168.667C290.001 168.506 290.389 168.425 290.815 168.425C291.321 168.425 291.849 168.524 292.399 168.722V168.579C292.399 168.205 292.285 167.897 292.058 167.655C291.838 167.406 291.489 167.281 291.013 167.281C290.558 167.281 290.045 167.424 289.473 167.71L289.011 166.775C289.817 166.379 290.573 166.181 291.277 166.181ZM290.914 171.153C291.258 171.153 291.574 171.069 291.86 170.9C292.153 170.731 292.333 170.504 292.399 170.218V169.569C291.959 169.43 291.497 169.36 291.013 169.36C290.668 169.36 290.378 169.448 290.144 169.624C289.909 169.793 289.792 170.009 289.792 170.273C289.792 170.537 289.898 170.75 290.111 170.911C290.323 171.072 290.591 171.153 290.914 171.153ZM300.416 166.313V171.395C300.416 171.879 300.288 172.308 300.031 172.682C299.782 173.063 299.43 173.36 298.975 173.573C298.528 173.786 298.018 173.892 297.446 173.892C296.97 173.892 296.515 173.822 296.082 173.683C295.65 173.544 295.29 173.36 295.004 173.133L295.499 172.154C295.697 172.337 295.95 172.48 296.258 172.583C296.574 172.693 296.9 172.748 297.237 172.748C297.795 172.748 298.238 172.623 298.568 172.374C298.898 172.125 299.063 171.784 299.063 171.351V170.625C298.836 170.933 298.554 171.171 298.216 171.34C297.879 171.501 297.512 171.582 297.116 171.582C296.632 171.582 296.196 171.468 295.807 171.241C295.419 171.006 295.114 170.684 294.894 170.273C294.674 169.862 294.564 169.397 294.564 168.876C294.564 168.355 294.674 167.893 294.894 167.49C295.114 167.079 295.419 166.76 295.807 166.533C296.196 166.298 296.632 166.181 297.116 166.181C297.52 166.181 297.894 166.269 298.238 166.445C298.583 166.614 298.858 166.848 299.063 167.149V166.313H300.416ZM297.501 170.438C297.956 170.438 298.33 170.291 298.623 169.998C298.917 169.705 299.063 169.331 299.063 168.876C299.063 168.421 298.917 168.051 298.623 167.765C298.33 167.472 297.956 167.325 297.501 167.325C297.054 167.325 296.684 167.472 296.39 167.765C296.097 168.051 295.95 168.421 295.95 168.876C295.95 169.331 296.093 169.705 296.379 169.998C296.673 170.291 297.047 170.438 297.501 170.438ZM301.672 166.313H303.014V172H301.672V166.313ZM302.343 165.455C302.13 165.455 301.947 165.378 301.793 165.224C301.646 165.07 301.573 164.89 301.573 164.685C301.573 164.48 301.646 164.304 301.793 164.157C301.947 164.003 302.13 163.926 302.343 163.926C302.548 163.926 302.724 164.003 302.871 164.157C303.017 164.304 303.091 164.48 303.091 164.685C303.091 164.89 303.017 165.07 302.871 165.224C302.724 165.378 302.548 165.455 302.343 165.455ZM306.989 172.132C306.446 172.132 305.94 171.996 305.471 171.725C305.009 171.454 304.638 171.091 304.36 170.636C304.081 170.174 303.942 169.679 303.942 169.151C303.942 168.623 304.081 168.132 304.36 167.677C304.638 167.222 305.012 166.859 305.482 166.588C305.951 166.317 306.457 166.181 307 166.181C307.425 166.181 307.821 166.262 308.188 166.423C308.554 166.584 308.881 166.812 309.167 167.105L308.265 167.897C308.103 167.721 307.909 167.582 307.682 167.479C307.454 167.376 307.223 167.325 306.989 167.325C306.681 167.325 306.395 167.409 306.131 167.578C305.867 167.739 305.658 167.963 305.504 168.249C305.35 168.528 305.273 168.828 305.273 169.151C305.273 169.481 305.35 169.789 305.504 170.075C305.665 170.354 305.878 170.577 306.142 170.746C306.406 170.907 306.692 170.988 307 170.988C307.242 170.988 307.476 170.937 307.704 170.834C307.931 170.724 308.129 170.577 308.298 170.394L309.2 171.175C308.906 171.476 308.573 171.71 308.199 171.879C307.832 172.048 307.429 172.132 306.989 172.132ZM312.794 173.958C312.611 173.958 312.424 173.936 312.233 173.892C312.035 173.855 311.87 173.808 311.738 173.749L311.903 172.726C311.977 172.755 312.076 172.781 312.2 172.803C312.318 172.825 312.428 172.836 312.53 172.836C312.692 172.836 312.824 172.774 312.926 172.649C313.036 172.524 313.091 172.367 313.091 172.176V166.313H314.433V172.275C314.433 172.774 314.279 173.177 313.971 173.485C313.671 173.8 313.278 173.958 312.794 173.958ZM313.762 165.455C313.55 165.455 313.366 165.378 313.212 165.224C313.066 165.07 312.992 164.89 312.992 164.685C312.992 164.48 313.066 164.304 313.212 164.157C313.366 164.003 313.55 163.926 313.762 163.926C313.968 163.926 314.144 164.003 314.29 164.157C314.437 164.304 314.51 164.48 314.51 164.685C314.51 164.89 314.437 165.07 314.29 165.224C314.144 165.378 313.968 165.455 313.762 165.455ZM320.859 166.313V172H319.506V171.252C319.33 171.523 319.085 171.74 318.769 171.901C318.461 172.055 318.12 172.132 317.746 172.132C317.336 172.132 316.969 172.04 316.646 171.857C316.331 171.666 316.082 171.406 315.898 171.076C315.722 170.739 315.634 170.357 315.634 169.932V166.313H316.932V169.668C316.932 170.057 317.042 170.376 317.262 170.625C317.49 170.867 317.779 170.988 318.131 170.988C318.52 170.988 318.846 170.871 319.11 170.636C319.374 170.394 319.506 170.101 319.506 169.756V166.313H320.859ZM324.173 172.132C323.733 172.132 323.289 172.059 322.842 171.912C322.402 171.758 322.013 171.549 321.676 171.285L322.248 170.405C322.549 170.625 322.868 170.797 323.205 170.922C323.55 171.039 323.88 171.098 324.195 171.098C324.496 171.098 324.73 171.039 324.899 170.922C325.075 170.805 325.163 170.647 325.163 170.449C325.163 170.244 325.064 170.09 324.866 169.987C324.675 169.884 324.371 169.778 323.953 169.668C323.491 169.543 323.117 169.419 322.831 169.294C322.552 169.162 322.332 168.99 322.171 168.777C322.017 168.564 321.94 168.293 321.94 167.963C321.94 167.611 322.028 167.303 322.204 167.039C322.387 166.768 322.64 166.559 322.963 166.412C323.293 166.258 323.667 166.181 324.085 166.181C324.459 166.181 324.833 166.243 325.207 166.368C325.588 166.485 325.937 166.65 326.252 166.863L325.735 167.765C325.456 167.589 325.174 167.453 324.888 167.358C324.602 167.255 324.334 167.204 324.085 167.204C323.821 167.204 323.605 167.263 323.436 167.38C323.267 167.49 323.183 167.64 323.183 167.831C323.183 167.956 323.223 168.055 323.304 168.128C323.385 168.201 323.498 168.267 323.645 168.326C323.792 168.377 324.045 168.458 324.404 168.568C324.822 168.685 325.167 168.803 325.438 168.92C325.709 169.037 325.937 169.21 326.12 169.437C326.311 169.664 326.406 169.961 326.406 170.328C326.406 170.871 326.201 171.307 325.79 171.637C325.379 171.967 324.84 172.132 324.173 172.132ZM330.313 171.681C330.151 171.82 329.961 171.93 329.741 172.011C329.528 172.092 329.312 172.132 329.092 172.132C328.622 172.132 328.237 171.978 327.937 171.67C327.643 171.362 327.497 170.97 327.497 170.493V167.424H326.672V166.313H327.497V164.751H328.795V166.313H330.082V167.424H328.795V170.328C328.795 170.519 328.85 170.676 328.96 170.801C329.07 170.926 329.202 170.988 329.356 170.988C329.466 170.988 329.572 170.97 329.675 170.933C329.785 170.889 329.869 170.838 329.928 170.779L330.313 171.681ZM336.376 172.132C335.936 172.132 335.492 172.059 335.045 171.912C334.605 171.758 334.216 171.549 333.879 171.285L334.451 170.405C334.752 170.625 335.071 170.797 335.408 170.922C335.753 171.039 336.083 171.098 336.398 171.098C336.699 171.098 336.933 171.039 337.102 170.922C337.278 170.805 337.366 170.647 337.366 170.449C337.366 170.244 337.267 170.09 337.069 169.987C336.878 169.884 336.574 169.778 336.156 169.668C335.694 169.543 335.32 169.419 335.034 169.294C334.755 169.162 334.535 168.99 334.374 168.777C334.22 168.564 334.143 168.293 334.143 167.963C334.143 167.611 334.231 167.303 334.407 167.039C334.59 166.768 334.843 166.559 335.166 166.412C335.496 166.258 335.87 166.181 336.288 166.181C336.662 166.181 337.036 166.243 337.41 166.368C337.791 166.485 338.14 166.65 338.455 166.863L337.938 167.765C337.659 167.589 337.377 167.453 337.091 167.358C336.805 167.255 336.537 167.204 336.288 167.204C336.024 167.204 335.808 167.263 335.639 167.38C335.47 167.49 335.386 167.64 335.386 167.831C335.386 167.956 335.426 168.055 335.507 168.128C335.588 168.201 335.701 168.267 335.848 168.326C335.995 168.377 336.248 168.458 336.607 168.568C337.025 168.685 337.37 168.803 337.641 168.92C337.912 169.037 338.14 169.21 338.323 169.437C338.514 169.664 338.609 169.961 338.609 170.328C338.609 170.871 338.404 171.307 337.993 171.637C337.582 171.967 337.043 172.132 336.376 172.132ZM341.98 166.181C342.728 166.181 343.318 166.401 343.751 166.841C344.191 167.274 344.411 167.853 344.411 168.579V172H343.102V171.329C342.896 171.578 342.632 171.776 342.31 171.923C341.987 172.062 341.657 172.132 341.32 172.132C340.916 172.132 340.553 172.059 340.231 171.912C339.915 171.758 339.666 171.545 339.483 171.274C339.299 170.995 339.208 170.676 339.208 170.317C339.208 169.95 339.31 169.624 339.516 169.338C339.721 169.052 340 168.828 340.352 168.667C340.704 168.506 341.092 168.425 341.518 168.425C342.024 168.425 342.552 168.524 343.102 168.722V168.579C343.102 168.205 342.988 167.897 342.761 167.655C342.541 167.406 342.192 167.281 341.716 167.281C341.261 167.281 340.748 167.424 340.176 167.71L339.714 166.775C340.52 166.379 341.276 166.181 341.98 166.181ZM341.617 171.153C341.961 171.153 342.277 171.069 342.563 170.9C342.856 170.731 343.036 170.504 343.102 170.218V169.569C342.662 169.43 342.2 169.36 341.716 169.36C341.371 169.36 341.081 169.448 340.847 169.624C340.612 169.793 340.495 170.009 340.495 170.273C340.495 170.537 340.601 170.75 340.814 170.911C341.026 171.072 341.294 171.153 341.617 171.153ZM344.953 166.313H346.372L348.022 170.449L349.639 166.313H351.069L348.66 172H347.395L344.953 166.313ZM354.327 171.054C354.621 171.054 354.91 170.999 355.196 170.889C355.49 170.779 355.728 170.636 355.911 170.46L356.681 171.252C356.439 171.509 356.098 171.721 355.658 171.89C355.218 172.051 354.789 172.132 354.371 172.132C353.829 172.132 353.33 172.004 352.875 171.747C352.421 171.49 352.058 171.135 351.786 170.68C351.522 170.225 351.39 169.712 351.39 169.14C351.39 168.575 351.519 168.069 351.775 167.622C352.032 167.175 352.38 166.823 352.82 166.566C353.268 166.309 353.759 166.181 354.294 166.181C355.167 166.181 355.849 166.482 356.34 167.083C356.839 167.684 357.088 168.506 357.088 169.547H352.688C352.762 170.002 352.945 170.368 353.238 170.647C353.532 170.918 353.895 171.054 354.327 171.054ZM354.316 167.259C353.913 167.259 353.565 167.387 353.271 167.644C352.978 167.893 352.787 168.231 352.699 168.656H355.79C355.724 168.238 355.563 167.901 355.306 167.644C355.057 167.387 354.727 167.259 354.316 167.259ZM363.636 164.311V172H362.294V171.109C362.074 171.432 361.792 171.685 361.447 171.868C361.11 172.044 360.736 172.132 360.325 172.132C359.826 172.132 359.379 172.007 358.983 171.758C358.587 171.501 358.275 171.146 358.048 170.691C357.821 170.236 357.707 169.723 357.707 169.151C357.707 168.579 357.821 168.069 358.048 167.622C358.275 167.167 358.587 166.815 358.983 166.566C359.379 166.309 359.826 166.181 360.325 166.181C360.736 166.181 361.11 166.273 361.447 166.456C361.792 166.632 362.074 166.881 362.294 167.204V164.311H363.636ZM360.688 170.988C360.996 170.988 361.271 170.911 361.513 170.757C361.762 170.596 361.953 170.376 362.085 170.097C362.224 169.818 362.294 169.503 362.294 169.151C362.294 168.616 362.144 168.179 361.843 167.842C361.542 167.497 361.157 167.325 360.688 167.325C360.204 167.325 359.808 167.497 359.5 167.842C359.192 168.179 359.038 168.616 359.038 169.151C359.038 169.686 359.192 170.126 359.5 170.471C359.808 170.816 360.204 170.988 360.688 170.988ZM369.216 173.98C368.996 173.98 368.773 173.954 368.545 173.903C368.325 173.852 368.131 173.778 367.962 173.683L368.248 172.715C368.512 172.854 368.754 172.924 368.974 172.924C369.304 172.924 369.557 172.781 369.733 172.495L369.942 172.044L367.533 166.313H368.952L370.613 170.559L372.186 166.313H373.572L371.152 172.396C370.749 173.437 370.104 173.965 369.216 173.98ZM376.588 172.132C376.038 172.132 375.528 172 375.059 171.736C374.589 171.465 374.215 171.102 373.937 170.647C373.665 170.185 373.53 169.686 373.53 169.151C373.53 168.616 373.665 168.121 373.937 167.666C374.215 167.211 374.589 166.852 375.059 166.588C375.528 166.317 376.038 166.181 376.588 166.181C377.138 166.181 377.644 166.317 378.106 166.588C378.575 166.852 378.945 167.211 379.217 167.666C379.488 168.121 379.624 168.616 379.624 169.151C379.624 169.686 379.488 170.185 379.217 170.647C378.945 171.102 378.575 171.465 378.106 171.736C377.644 172 377.138 172.132 376.588 172.132ZM376.588 170.988C376.896 170.988 377.182 170.907 377.446 170.746C377.71 170.577 377.919 170.354 378.073 170.075C378.227 169.789 378.304 169.481 378.304 169.151C378.304 168.821 378.227 168.517 378.073 168.238C377.919 167.959 377.71 167.739 377.446 167.578C377.182 167.409 376.896 167.325 376.588 167.325C376.272 167.325 375.983 167.409 375.719 167.578C375.455 167.739 375.242 167.959 375.081 168.238C374.927 168.517 374.85 168.821 374.85 169.151C374.85 169.481 374.927 169.789 375.081 170.075C375.242 170.354 375.455 170.577 375.719 170.746C375.983 170.907 376.272 170.988 376.588 170.988ZM385.688 166.313V172H384.335V171.252C384.159 171.523 383.914 171.74 383.598 171.901C383.29 172.055 382.949 172.132 382.575 172.132C382.165 172.132 381.798 172.04 381.475 171.857C381.16 171.666 380.911 171.406 380.727 171.076C380.551 170.739 380.463 170.357 380.463 169.932V166.313H381.761V169.668C381.761 170.057 381.871 170.376 382.091 170.625C382.319 170.867 382.608 170.988 382.96 170.988C383.349 170.988 383.675 170.871 383.939 170.636C384.203 170.394 384.335 170.101 384.335 169.756V166.313H385.688ZM391.59 166.027L390.292 166.852L389.731 165.884L391.854 164.443H392.954V172H391.59V166.027ZM397.169 168.656C397.638 168.282 397.972 167.941 398.17 167.633C398.368 167.325 398.467 167.013 398.467 166.698C398.467 166.353 398.338 166.075 398.082 165.862C397.832 165.649 397.532 165.543 397.18 165.543C396.806 165.543 396.465 165.635 396.157 165.818C395.856 165.994 395.559 166.258 395.266 166.61L394.375 165.785C395.123 164.802 396.072 164.311 397.224 164.311C397.722 164.311 398.17 164.41 398.566 164.608C398.969 164.806 399.284 165.085 399.512 165.444C399.746 165.803 399.864 166.21 399.864 166.665C399.864 167.171 399.728 167.644 399.457 168.084C399.193 168.517 398.742 168.979 398.104 169.47L396.52 170.746H399.941V172H394.386V170.878L397.169 168.656ZM410.762 166.181C411.151 166.181 411.503 166.276 411.818 166.467C412.141 166.65 412.39 166.911 412.566 167.248C412.75 167.578 412.841 167.956 412.841 168.381V172H411.532V168.601C411.532 168.227 411.43 167.923 411.224 167.688C411.019 167.446 410.751 167.325 410.421 167.325C410.062 167.325 409.765 167.439 409.53 167.666C409.296 167.886 409.178 168.168 409.178 168.513V172H407.88V168.601C407.88 168.227 407.774 167.923 407.561 167.688C407.356 167.446 407.092 167.325 406.769 167.325C406.41 167.325 406.113 167.439 405.878 167.666C405.644 167.886 405.526 168.168 405.526 168.513V172H404.184V166.313H405.526V167.083C405.673 166.804 405.882 166.584 406.153 166.423C406.432 166.262 406.747 166.181 407.099 166.181C407.473 166.181 407.811 166.265 408.111 166.434C408.419 166.603 408.665 166.841 408.848 167.149C409.046 166.848 409.31 166.614 409.64 166.445C409.97 166.269 410.344 166.181 410.762 166.181ZM413.981 166.313H415.323V172H413.981V166.313ZM414.652 165.455C414.44 165.455 414.256 165.378 414.102 165.224C413.956 165.07 413.882 164.89 413.882 164.685C413.882 164.48 413.956 164.304 414.102 164.157C414.256 164.003 414.44 163.926 414.652 163.926C414.858 163.926 415.034 164.003 415.18 164.157C415.327 164.304 415.4 164.48 415.4 164.685C415.4 164.89 415.327 165.07 415.18 165.224C415.034 165.378 414.858 165.455 414.652 165.455ZM419.672 166.181C420.083 166.181 420.45 166.276 420.772 166.467C421.095 166.65 421.344 166.911 421.52 167.248C421.704 167.578 421.795 167.956 421.795 168.381V172H420.486V168.645C420.486 168.256 420.373 167.941 420.145 167.699C419.925 167.45 419.639 167.325 419.287 167.325C418.899 167.325 418.572 167.446 418.308 167.688C418.044 167.923 417.912 168.212 417.912 168.557V172H416.57V166.313H417.912V167.061C418.088 166.79 418.33 166.577 418.638 166.423C418.954 166.262 419.298 166.181 419.672 166.181ZM428.066 166.313V172H426.713V171.252C426.537 171.523 426.292 171.74 425.976 171.901C425.668 172.055 425.327 172.132 424.953 172.132C424.543 172.132 424.176 172.04 423.853 171.857C423.538 171.666 423.289 171.406 423.105 171.076C422.929 170.739 422.841 170.357 422.841 169.932V166.313H424.139V169.668C424.139 170.057 424.249 170.376 424.469 170.625C424.697 170.867 424.986 170.988 425.338 170.988C425.727 170.988 426.053 170.871 426.317 170.636C426.581 170.394 426.713 170.101 426.713 169.756V166.313H428.066ZM432.61 171.681C432.449 171.82 432.258 171.93 432.038 172.011C431.826 172.092 431.609 172.132 431.389 172.132C430.92 172.132 430.535 171.978 430.234 171.67C429.941 171.362 429.794 170.97 429.794 170.493V167.424H428.969V166.313H429.794V164.751H431.092V166.313H432.379V167.424H431.092V170.328C431.092 170.519 431.147 170.676 431.257 170.801C431.367 170.926 431.499 170.988 431.653 170.988C431.763 170.988 431.87 170.97 431.972 170.933C432.082 170.889 432.167 170.838 432.225 170.779L432.61 171.681ZM435.979 171.054C436.272 171.054 436.562 170.999 436.848 170.889C437.141 170.779 437.379 170.636 437.563 170.46L438.333 171.252C438.091 171.509 437.75 171.721 437.31 171.89C436.87 172.051 436.441 172.132 436.023 172.132C435.48 172.132 434.981 172.004 434.527 171.747C434.072 171.49 433.709 171.135 433.438 170.68C433.174 170.225 433.042 169.712 433.042 169.14C433.042 168.575 433.17 168.069 433.427 167.622C433.683 167.175 434.032 166.823 434.472 166.566C434.919 166.309 435.41 166.181 435.946 166.181C436.818 166.181 437.5 166.482 437.992 167.083C438.49 167.684 438.74 168.506 438.74 169.547H434.34C434.413 170.002 434.596 170.368 434.89 170.647C435.183 170.918 435.546 171.054 435.979 171.054ZM435.968 167.259C435.564 167.259 435.216 167.387 434.923 167.644C434.629 167.893 434.439 168.231 434.351 168.656H437.442C437.376 168.238 437.214 167.901 436.958 167.644C436.708 167.387 436.378 167.259 435.968 167.259ZM441.413 172.132C440.973 172.132 440.53 172.059 440.082 171.912C439.642 171.758 439.254 171.549 438.916 171.285L439.488 170.405C439.789 170.625 440.108 170.797 440.445 170.922C440.79 171.039 441.12 171.098 441.435 171.098C441.736 171.098 441.971 171.039 442.139 170.922C442.315 170.805 442.403 170.647 442.403 170.449C442.403 170.244 442.304 170.09 442.106 169.987C441.916 169.884 441.611 169.778 441.193 169.668C440.731 169.543 440.357 169.419 440.071 169.294C439.793 169.162 439.573 168.99 439.411 168.777C439.257 168.564 439.18 168.293 439.18 167.963C439.18 167.611 439.268 167.303 439.444 167.039C439.628 166.768 439.881 166.559 440.203 166.412C440.533 166.258 440.907 166.181 441.325 166.181C441.699 166.181 442.073 166.243 442.447 166.368C442.829 166.485 443.177 166.65 443.492 166.863L442.975 167.765C442.697 167.589 442.414 167.453 442.128 167.358C441.842 167.255 441.575 167.204 441.325 167.204C441.061 167.204 440.845 167.263 440.676 167.38C440.508 167.49 440.423 167.64 440.423 167.831C440.423 167.956 440.464 168.055 440.544 168.128C440.625 168.201 440.739 168.267 440.885 168.326C441.032 168.377 441.285 168.458 441.644 168.568C442.062 168.685 442.407 168.803 442.678 168.92C442.95 169.037 443.177 169.21 443.36 169.437C443.551 169.664 443.646 169.961 443.646 170.328C443.646 170.871 443.441 171.307 443.03 171.637C442.62 171.967 442.081 172.132 441.413 172.132ZM444.696 164.443H446.247L445.928 169.525H445.004L444.696 164.443ZM445.466 172.132C445.216 172.132 445.007 172.048 444.839 171.879C444.67 171.703 444.586 171.494 444.586 171.252C444.586 171.025 444.67 170.827 444.839 170.658C445.015 170.489 445.224 170.405 445.466 170.405C445.7 170.405 445.898 170.489 446.06 170.658C446.228 170.827 446.313 171.025 446.313 171.252C446.313 171.494 446.228 171.703 446.06 171.879C445.898 172.048 445.7 172.132 445.466 172.132Z" fill="#5D5D67"/>
<rect x="251.857" y="151.222" width="167.518" height="5.33333" rx="2.66667" fill="#EEEEEE"/>
<rect x="251.857" y="139.222" width="106.411" height="5.55556" rx="2.77778" fill="#EEEEEE"/>
</g>
<defs>
<filter id="filter0_d" x="162" y="75.1593" width="35.5089" height="35.5132" filterUnits="userSpaceOnUse" color-interpolation-filters="sRGB">
<feFlood flood-opacity="0" result="BackgroundImageFix"/>
<feColorMatrix in="SourceAlpha" type="matrix" values="0 0 0 0 0 0 0 0 0 0 0 0 0 0 0 0 0 0 127 0" result="hardAlpha"/>
<feOffset dy="1"/>
<feGaussianBlur stdDeviation="0.5"/>
<feColorMatrix type="matrix" values="0 0 0 0 0.819608 0 0 0 0 0.819608 0 0 0 0 0.847059 0 0 0 0.5 0"/>
<feBlend mode="normal" in2="BackgroundImageFix" result="effect1_dropShadow"/>
<feBlend mode="normal" in="SourceGraphic" in2="effect1_dropShadow" result="shape"/>
</filter>
<filter id="filter1_d" x="162" y="38.543" width="35.5089" height="35.5132" filterUnits="userSpaceOnUse" color-interpolation-filters="sRGB">
<feFlood flood-opacity="0" result="BackgroundImageFix"/>
<feColorMatrix in="SourceAlpha" type="matrix" values="0 0 0 0 0 0 0 0 0 0 0 0 0 0 0 0 0 0 127 0" result="hardAlpha"/>
<feOffset dy="1"/>
<feGaussianBlur stdDeviation="0.5"/>
<feColorMatrix type="matrix" values="0 0 0 0 0.819608 0 0 0 0 0.819608 0 0 0 0 0.847059 0 0 0 0.5 0"/>
<feBlend mode="normal" in2="BackgroundImageFix" result="effect1_dropShadow"/>
<feBlend mode="normal" in="SourceGraphic" in2="effect1_dropShadow" result="shape"/>
</filter>
<filter id="filter2_d" x="199.232" y="75.1593" width="36.1295" height="35.5132" filterUnits="userSpaceOnUse" color-interpolation-filters="sRGB">
<feFlood flood-opacity="0" result="BackgroundImageFix"/>
<feColorMatrix in="SourceAlpha" type="matrix" values="0 0 0 0 0 0 0 0 0 0 0 0 0 0 0 0 0 0 127 0" result="hardAlpha"/>
<feOffset dy="1"/>
<feGaussianBlur stdDeviation="0.5"/>
<feColorMatrix type="matrix" values="0 0 0 0 0.819608 0 0 0 0 0.819608 0 0 0 0 0.847059 0 0 0 0.5 0"/>
<feBlend mode="normal" in2="BackgroundImageFix" result="effect1_dropShadow"/>
<feBlend mode="normal" in="SourceGraphic" in2="effect1_dropShadow" result="shape"/>
</filter>
<filter id="filter3_d" x="237.085" y="38.543" width="35.5089" height="35.5132" filterUnits="userSpaceOnUse" color-interpolation-filters="sRGB">
<feFlood flood-opacity="0" result="BackgroundImageFix"/>
<feColorMatrix in="SourceAlpha" type="matrix" values="0 0 0 0 0 0 0 0 0 0 0 0 0 0 0 0 0 0 127 0" result="hardAlpha"/>
<feOffset dy="1"/>
<feGaussianBlur stdDeviation="0.5"/>
<feColorMatrix type="matrix" values="0 0 0 0 0.819608 0 0 0 0 0.819608 0 0 0 0 0.847059 0 0 0 0.5 0"/>
<feBlend mode="normal" in2="BackgroundImageFix" result="effect1_dropShadow"/>
<feBlend mode="normal" in="SourceGraphic" in2="effect1_dropShadow" result="shape"/>
</filter>
<filter id="filter4_d" x="195.448" y="35.2662" width="44.1295" height="43.5132" filterUnits="userSpaceOnUse" color-interpolation-filters="sRGB">
<feFlood flood-opacity="0" result="BackgroundImageFix"/>
<feColorMatrix in="SourceAlpha" type="matrix" values="0 0 0 0 0 0 0 0 0 0 0 0 0 0 0 0 0 0 127 0" result="hardAlpha"/>
<feOffset dy="5"/>
<feGaussianBlur stdDeviation="2.5"/>
<feColorMatrix type="matrix" values="0 0 0 0 0.203922 0 0 0 0 0.286275 0 0 0 0 0.364706 0 0 0 0.07 0"/>
<feBlend mode="normal" in2="BackgroundImageFix" result="effect1_dropShadow"/>
<feBlend mode="normal" in="SourceGraphic" in2="effect1_dropShadow" result="shape"/>
</filter>
<filter id="filter5_d" x="215" y="116.976" width="276" height="102.905" filterUnits="userSpaceOnUse" color-interpolation-filters="sRGB">
<feFlood flood-opacity="0" result="BackgroundImageFix"/>
<feColorMatrix in="SourceAlpha" type="matrix" values="0 0 0 0 0 0 0 0 0 0 0 0 0 0 0 0 0 0 127 0" result="hardAlpha"/>
<feOffset dy="10"/>
<feGaussianBlur stdDeviation="10"/>
<feColorMatrix type="matrix" values="0 0 0 0 0.203922 0 0 0 0 0.286275 0 0 0 0 0.364706 0 0 0 0.07 0"/>
<feBlend mode="normal" in2="BackgroundImageFix" result="effect1_dropShadow"/>
<feBlend mode="normal" in="SourceGraphic" in2="effect1_dropShadow" result="shape"/>
</filter>
<linearGradient id="paint0_linear" x1="200.448" y1="60.9182" x2="234.532" y2="49.2036" gradientUnits="userSpaceOnUse">
<stop stop-color="#FF9500"/>
<stop offset="1" stop-color="#FE19FF"/>
</linearGradient>
<linearGradient id="paint1_linear" x1="47.4703" y1="176.145" x2="169.474" y2="220.069" gradientUnits="userSpaceOnUse">
<stop stop-color="#FF9500"/>
<stop offset="1" stop-color="#FE19FF"/>
</linearGradient>
<linearGradient id="paint2_linear" x1="286632" y1="121966" x2="299663" y2="132823" gradientUnits="userSpaceOnUse">
<stop stop-color="#FF9500"/>
<stop offset="1" stop-color="#FE19FF"/>
</linearGradient>
<clipPath id="clip0">
<rect width="126.718" height="265.522" fill="white" transform="translate(153.376 6.18799)"/>
</clipPath>
</defs>
</svg>
