<svg
    version="1.1"
    id="market-ios"
    xmlns="http://www.w3.org/2000/svg"
    xmlns:xlink="http://www.w3.org/1999/xlink"
    x="0px"
    y="0px"
    viewBox="0 0 510 320"
    style="enable-background: new 0 0 510 320;"
    xml:space="preserve"
>
    <style type="text/css">
        #market-ios .st0 {
            fill: url(#market-ios-market-mid-app_1_);
        }
        #market-ios .st1 {
            fill-rule: evenodd;
            clip-rule: evenodd;
            fill: #e5e5e9;
        }
        #market-ios .st2 {
            fill-rule: evenodd;
            clip-rule: evenodd;
            fill: #fbfbfb;
        }
        #market-ios .st3 {
            opacity: 7e-2;
            fill: #5d5d67;
            enable-background: new;
        }
        #market-ios .st4 {
            opacity: 3e-2;
            fill: #5d5d67;
            enable-background: new;
        }
        #market-ios .st5 {
            fill: url(#market-ios-SVGID_1_);
        }
        #market-ios .st6 {
            fill: #ffffff;
        }
        #market-ios .st7 {
            fill: #707070;
        }
        #market-ios .st8 {
            fill: #b7b7c0;
        }
        #market-ios .st9 {
            fill: url(#market-ios-SVGID_2_);
        }
        #market-ios .st10 {
            fill: url(#market-ios-SVGID_3_);
        }
        #market-ios .st11 {
            fill: url(#market-ios-SVGID_4_);
        }
        #market-ios .st12 {
            fill: url(#market-ios-SVGID_5_);
        }
        #market-ios .st13 {
            fill: url(#market-ios-SVGID_6_);
        }
        #market-ios .st14 {
            fill: url(#market-ios-SVGID_7_);
        }
        #market-ios .st15 {
            fill: #eeeeee;
        }
        #market-ios .st16 {
            fill: #188bef;
        }
        #market-ios .st17 {
            fill: url(#market-ios-SVGID_8_);
        }
        #market-ios .st18 {
            fill: url(#market-ios-SVGID_9_);
        }
        #market-ios .st19 {
            fill: url(#market-ios-SVGID_10_);
        }
        #market-ios .st20 {
            fill: url(#market-ios-SVGID_11_);
        }
        #market-ios .st21 {
            fill: url(#market-ios-SVGID_12_);
        }
    </style>
    <linearGradient
        id="market-ios-market-mid-app_1_"
        gradientUnits="userSpaceOnUse"
        x1="103.8498"
        y1="-578.8112"
        x2="192.6237"
        y2="-548.8514"
        gradientTransform="matrix(1 0 0 -1 0 -478)"
    >
        <stop offset="0" style="stop-color: #f2ac3d;" />
        <stop offset="1" style="stop-color: #e643f5;" />
    </linearGradient>
    <path
        id="market-ios-market-mid-app"
        class="st0"
        d="M115.4,40.7H186c5,0,9,4,9,9v70.6c0,5-4,9-9,9h-70.6c-5,0-9-4-9-9V49.7
	C106.4,44.7,110.4,40.7,115.4,40.7z"
    />
    <g id="market-back-phone">
        <path
            id="market-frame"
            class="st1"
            d="M206.4,45.2c0-13.3,10.7-24,24-24h91c13.3,0,24,10.7,24,24v230c0,13.3-10.7,24-24,24h-91
		c-13.3,0-24-10.7-24-24V45.2z"
        />
        <path
            id="market-screen"
            class="st2"
            d="M319.4,292.9h-86.8c-11,0-20-9-20-20V47.4c0-11,9-20,20-20h86.8c11,0,20,9,20,20v225.5
		C339.4,283.9,330.4,292.9,319.4,292.9z"
        />
        <path
            id="market-wave-bottom"
            class="st3"
            d="M298.4,179.2c-36.4-4-33.7,72.8-66.6,74c-11,0.4-16.2-9-19.1-22.2v41.9
		c0,11.1,9,20,20,20l86.7-0.1c11,0,20-9,20-20V202C332.1,192.3,318.9,181.4,298.4,179.2z"
        />
        <path
            id="market-wave-middle"
            class="st4"
            d="M324.9,79.9c-30,9.6-45.8,129.5-83.2,108.5c-25.3-14.2-22.3-49.3-29-70.8V231
		c2.9,13.2,8.1,22.6,19.1,22.2c32.9-1.2,30.2-78,66.6-74c20.4,2.2,33.7,13.1,41,22.9V77.7C335.3,77.5,330.5,78.1,324.9,79.9z"
        />
        <g id="market-appstore">
            <linearGradient
                id="market-ios-SVGID_1_"
                gradientUnits="userSpaceOnUse"
                x1="247.7"
                y1="265.3128"
                x2="247.7"
                y2="215.3128"
                gradientTransform="matrix(1 0 0 -1 0 322)"
            >
                <stop offset="0" style="stop-color: #0ed4fc;" />
                <stop offset="1" style="stop-color: #0c57ef;" />
            </linearGradient>
            <path
                class="st5"
                d="M262.7,107.5h-30c-5.5,0-10-4.5-10-10v-30c0-5.5,4.5-10,10-10h30c5.5,0,10,4.5,10,10v30
			C272.7,103,268.2,107.5,262.7,107.5z"
            />
            <g id="market-appstore-icon">
                <path
                    class="st6"
                    d="M250.1,82.5c1.9,3.2,4.7,8.1,8.4,14.6c0.6,1.1,2,1.5,3.1,0.8c1.1-0.6,1.5-2,0.8-3.1l-2.2-3.9h3.3
				c1.3,0,2.3-1,2.3-2.3s-1-2.3-2.3-2.3h-5.9c-3-5.2-5.2-9-6.7-11.6C249.5,75.9,248.2,79.2,250.1,82.5z"
                />
                <path
                    class="st6"
                    d="M234.2,92l-1.6,2.8c-0.6,1.1-0.3,2.5,0.8,3.1s2.5,0.3,3.1-0.8l2.2-3.8C237.6,91.9,236.1,91.4,234.2,92z"
                />
                <path
                    class="st6"
                    d="M231.7,90.9h20.7c1-1.9-0.3-4.5-2.6-4.5h-7.1l9.8-16.9c0.6-1.1,0.3-2.5-0.8-3.1s-2.5-0.3-3.1,0.8l-1,1.8
				l-1-1.8c-0.6-1.1-2-1.5-3.1-0.8c-1.1,0.6-1.5,2-0.8,3.1l2.3,4l-7.4,12.9h-5.8c-1.3,0-2.3,1-2.3,2.3S230.4,90.9,231.7,90.9z"
                />
            </g>
        </g>
    </g>
    <g id="market-front-version" class="ds">
        <path
            id="market-container_2_"
            class="st6"
            d="M126,121.9H46c-2.8,0-5-2.2-5-5v-20c0-2.8,2.2-5,5-5h80c2.8,0,5,2.2,5,5v20
		C131,119.7,128.8,121.9,126,121.9z"
        />
        <g id="market-text_1_">
            <path class="st7" d="M59.5,112.5h1.3l3.2-7.7h-1.3l-2.6,6.3l-2.6-6.3h-1.3L59.5,112.5z" />
            <path
                class="st7"
                d="M64.8,108.7c0,2.4,1.6,4.1,3.9,4.1c1.3,0,2.3-0.4,3.1-1.2l-0.6-0.8c-0.6,0.6-1.5,1-2.4,1
			c-1.7,0-2.7-1.2-2.8-2.7h6.3v-0.3c0-2.3-1.4-4.1-3.7-4.1C66.5,104.6,64.8,106.4,64.8,108.7z M68.7,105.6c1.8,0,2.5,1.4,2.5,2.6
			h-5.1C66.2,107,67,105.6,68.7,105.6z"
            />
            <path
                class="st7"
                d="M74.2,112.5h1.2V107c0.4-0.6,1.4-1.2,2.1-1.2c0.2,0,0.3,0,0.5,0v-1.2c-1.1,0-2,0.6-2.6,1.4v-1.2h-1.2V112.5z"
            />
            <path class="st7" d="M85.3,112.5h1.3v-10.6h-1.2l-2.7,2.8l0.8,0.8l1.7-1.8L85.3,112.5L85.3,112.5z" />
            <path
                class="st7"
                d="M88.9,111.8c0,0.5,0.4,0.9,0.9,0.9s0.9-0.4,0.9-0.9s-0.4-0.9-0.9-0.9C89.2,110.9,88.9,111.3,88.9,111.8z"
            />
            <path
                class="st7"
                d="M92.5,107.2c0,2.9,1.1,5.5,4.1,5.5c2.3,0,3.7-1.6,3.7-3.5c0-2.3-1.6-3.4-3.5-3.4c-1.4,0-2.6,0.9-3,1.7
			c0-0.1,0-0.3,0-0.4c0-2.1,0.9-4.2,3-4.2c1.1,0,1.7,0.4,2.3,1.1l0.7-1c-0.7-0.8-1.6-1.3-3-1.3C93.8,101.7,92.5,104.3,92.5,107.2z
			 M99,109.3c0,1-0.8,2.3-2.4,2.3c-1.9,0-2.6-1.6-2.7-3c0.6-0.9,1.6-1.6,2.7-1.6C97.9,107,99,107.7,99,109.3z"
            />
        </g>
        <path
            id="market-arrow"
            class="st8"
            d="M118.2,107.4c0.1-0.1,0.1-0.3,0-0.4c0-0.1-0.1-0.1-0.1-0.2l-3.5-3.5c-0.2-0.2-0.5-0.2-0.7,0
		s-0.2,0.5,0,0.7l2.6,2.6h-5.8c-0.3,0-0.5,0.2-0.5,0.5s0.2,0.5,0.5,0.5h5.8l-2.6,2.6c-0.2,0.2-0.2,0.5,0,0.7
		c0.1,0.1,0.2,0.1,0.4,0.1s0.3,0,0.4-0.1L118.2,107.4C118.2,107.5,118.2,107.5,118.2,107.4z"
        />
    </g>
    <g id="market-front-stars" class="ds">
        <path
            id="market-container"
            class="st6"
            d="M25,140.1h166c2.2,0,4,1.8,4,4V174c0,2.2-1.8,4-4,4H25c-2.2,0-4-1.8-4-4v-29.9
		C21,141.9,22.8,140.1,25,140.1z"
        />

        <linearGradient
            id="market-ios-SVGID_2_"
            gradientUnits="userSpaceOnUse"
            x1="50.615"
            y1="-625.509"
            x2="37.8521"
            y2="-647.231"
            gradientTransform="matrix(1 0 0 -1 0 -478)"
        >
            <stop offset="0" style="stop-color: #00ceff;" />
            <stop offset="1" style="stop-color: #008bf7;" />
        </linearGradient>
        <path
            class="st9"
            d="M43.1,148.3c0.4-0.7,1.4-0.7,1.8,0l2.7,5.5c0.1,0.3,0.4,0.5,0.8,0.5l6.1,0.9c0.8,0.1,1.1,1.1,0.6,1.7l-4.4,4.3
		c-0.2,0.2-0.3,0.6-0.3,0.9l1,6.1c0.1,0.8-0.7,1.4-1.5,1.1l-5.5-2.9c-0.3-0.2-0.6-0.2-0.9,0l-5.5,2.9c-0.7,0.4-1.6-0.2-1.5-1.1
		l1-6.1c0.1-0.3-0.1-0.7-0.3-0.9l-4.4-4.3c-0.6-0.6-0.3-1.6,0.6-1.7l6.1-0.9c0.3,0,0.6-0.3,0.8-0.5L43.1,148.3z"
        />

        <linearGradient
            id="market-ios-SVGID_3_"
            gradientUnits="userSpaceOnUse"
            x1="82.6152"
            y1="-625.509"
            x2="69.8521"
            y2="-647.231"
            gradientTransform="matrix(1 0 0 -1 0 -478)"
        >
            <stop offset="0" style="stop-color: #00ceff;" />
            <stop offset="1" style="stop-color: #008bf7;" />
        </linearGradient>
        <path
            class="st10"
            d="M75.1,148.3c0.4-0.7,1.4-0.7,1.8,0l2.7,5.5c0.1,0.3,0.4,0.5,0.8,0.5l6.1,0.9c0.8,0.1,1.1,1.1,0.6,1.7
		l-4.4,4.3c-0.2,0.2-0.3,0.6-0.3,0.9l1,6.1c0.1,0.8-0.7,1.4-1.5,1.1l-5.5-2.9c-0.3-0.2-0.6-0.2-0.9,0l-5.5,2.9
		c-0.7,0.4-1.6-0.2-1.5-1.1l1-6.1c0.1-0.3-0.1-0.7-0.3-0.9l-4.4-4.3c-0.6-0.6-0.3-1.6,0.6-1.7l6.1-0.9c0.3,0,0.6-0.3,0.8-0.5
		L75.1,148.3z"
        />

        <linearGradient
            id="market-ios-SVGID_4_"
            gradientUnits="userSpaceOnUse"
            x1="114.6152"
            y1="-625.509"
            x2="101.8521"
            y2="-647.231"
            gradientTransform="matrix(1 0 0 -1 0 -478)"
        >
            <stop offset="0" style="stop-color: #00ceff;" />
            <stop offset="1" style="stop-color: #008bf7;" />
        </linearGradient>
        <path
            class="st11"
            d="M107.1,148.3c0.4-0.7,1.4-0.7,1.8,0l2.7,5.5c0.1,0.3,0.4,0.5,0.8,0.5l6.1,0.9c0.8,0.1,1.1,1.1,0.6,1.7
		l-4.4,4.3c-0.2,0.2-0.3,0.6-0.3,0.9l1,6.1c0.1,0.8-0.7,1.4-1.5,1.1l-5.5-2.9c-0.3-0.2-0.6-0.2-0.9,0l-5.5,2.9
		c-0.7,0.4-1.6-0.2-1.5-1.1l1-6.1c0.1-0.3-0.1-0.7-0.3-0.9l-4.4-4.3c-0.6-0.6-0.3-1.6,0.6-1.7l6.1-0.9c0.3,0,0.6-0.3,0.8-0.5
		L107.1,148.3z"
        />

        <linearGradient
            id="market-ios-SVGID_5_"
            gradientUnits="userSpaceOnUse"
            x1="146.6152"
            y1="-625.5089"
            x2="133.8522"
            y2="-647.2308"
            gradientTransform="matrix(1 0 0 -1 0 -478)"
        >
            <stop offset="0" style="stop-color: #00ceff;" />
            <stop offset="1" style="stop-color: #008bf7;" />
        </linearGradient>
        <path
            class="st12"
            d="M139.1,148.3c0.4-0.7,1.4-0.7,1.8,0l2.7,5.5c0.1,0.3,0.4,0.5,0.8,0.5l6.1,0.9c0.8,0.1,1.1,1.1,0.6,1.7
		l-4.4,4.3c-0.2,0.2-0.3,0.6-0.3,0.9l1,6.1c0.1,0.8-0.7,1.4-1.5,1.1l-5.5-2.9c-0.3-0.2-0.6-0.2-0.9,0l-5.5,2.9
		c-0.7,0.4-1.6-0.2-1.5-1.1l1-6.1c0.1-0.3-0.1-0.7-0.3-0.9l-4.4-4.3c-0.6-0.6-0.3-1.6,0.6-1.7l6.1-0.9c0.3,0,0.6-0.3,0.8-0.5
		L139.1,148.3z"
        />

        <linearGradient
            id="market-ios-SVGID_6_"
            gradientUnits="userSpaceOnUse"
            x1="178.6152"
            y1="-625.5089"
            x2="165.8522"
            y2="-647.2309"
            gradientTransform="matrix(1 0 0 -1 0 -478)"
        >
            <stop offset="0" style="stop-color: #00ceff;" />
            <stop offset="1" style="stop-color: #008bf7;" />
        </linearGradient>
        <path
            class="st13"
            d="M171.1,148.3c0.4-0.7,1.4-0.7,1.8,0l2.7,5.5c0.1,0.3,0.4,0.5,0.8,0.5l6.1,0.9c0.8,0.1,1.1,1.1,0.6,1.7
		l-4.4,4.3c-0.2,0.2-0.3,0.6-0.3,0.9l1,6.1c0.1,0.8-0.7,1.4-1.5,1.1l-5.5-2.9c-0.3-0.2-0.6-0.2-0.9,0l-5.5,2.9
		c-0.7,0.4-1.6-0.2-1.5-1.1l1-6.1c0.1-0.3-0.1-0.7-0.3-0.9l-4.4-4.3c-0.6-0.6-0.3-1.6,0.6-1.7l6.1-0.9c0.3,0,0.6-0.3,0.8-0.5
		L171.1,148.3z"
        />
    </g>
    <g id="market-front-get" class="ds">
        <path
            class="st6"
            d="M312.4,121.9h160.9c5,0,9.1,4.1,9.1,9.1v89.5c0,5-4.1,9.1-9.1,9.1H312.4c-5,0-9.1-4.1-9.1-9.1V131
		C303.4,126,307.4,121.9,312.4,121.9z"
        />

        <linearGradient
            id="market-ios-SVGID_7_"
            gradientUnits="userSpaceOnUse"
            x1="312.9415"
            y1="149.1474"
            x2="373.1451"
            y2="169.4652"
            gradientTransform="matrix(1 0 0 -1 0 322)"
        >
            <stop offset="0" style="stop-color: #f2ac3d;" />
            <stop offset="1" style="stop-color: #e643f5;" />
        </linearGradient>
        <path
            class="st14"
            d="M321.5,132.1H368c3.8,0,6.8,3,6.8,6.8v46.5c0,3.8-3,6.8-6.8,6.8h-46.5c-3.8,0-6.8-3-6.8-6.8v-46.5
		C314.7,135.1,317.7,132.1,321.5,132.1z"
        />
        <path
            class="st15"
            d="M390.6,136.6h64.6c1.3,0,2.3,1,2.3,2.3v11.3c0,1.3-1,2.3-2.3,2.3h-64.6c-1.3,0-2.3-1-2.3-2.3v-11.3
		C388.4,137.6,389.4,136.6,390.6,136.6z"
        />
        <path
            class="st15"
            d="M390.6,159.3h73.7c1.3,0,2.3,1,2.3,2.3l0,0c0,1.3-1,2.3-2.3,2.3h-73.7c-1.3,0-2.3-1-2.3-2.3l0,0
		C388.4,160.3,389.4,159.3,390.6,159.3z"
        />
        <path
            class="st15"
            d="M452.9,202.4h11.3c1.3,0,2.3,1,2.3,2.3v10.2c0,1.3-1,2.3-2.3,2.3h-11.3c-1.3,0-2.3-1-2.3-2.3v-10.2
		C450.7,203.4,451.7,202.4,452.9,202.4z"
        />
        <path
            class="st16"
            d="M396.9,170.6h32.9c5.9,0,10.8,4.8,10.8,10.8l0,0c0,5.9-4.8,10.8-10.8,10.8h-32.9c-5.9,0-10.8-4.8-10.8-10.8
		l0,0C386.1,175.4,390.9,170.6,396.9,170.6z"
        />
        <path
            class="st6"
            d="M398.7,182c0,2.8,2.1,4.7,4.7,4.7c1.5,0,2.8-0.6,3.7-1.6v-3.3h-4.3v1.2h2.9v1.6c-0.4,0.4-1.3,0.9-2.3,0.9
		c-1.9,0-3.3-1.5-3.3-3.5c0-2,1.4-3.5,3.3-3.5c1.1,0,2,0.5,2.5,1.2l1.1-0.6c-0.8-1-1.9-1.8-3.6-1.8
		C400.8,177.3,398.7,179.2,398.7,182z"
        />
        <path class="st6" d="M409.8,186.5h6.1v-1.2h-4.7v-2.8h4.6v-1.2h-4.6v-2.7h4.7v-1.2h-6.1V186.5z" />
        <path class="st6" d="M420.8,186.5h1.4v-7.9h2.8v-1.2h-7v1.2h2.8V186.5z" />
        <linearGradient
            id="market-ios-SVGID_8_"
            gradientUnits="userSpaceOnUse"
            x1="314.4758"
            y1="209.4674"
            x2="404.4909"
            y2="224.3103"
        >
            <stop offset="0" style="stop-color: #00ceff;" />
            <stop offset="1" style="stop-color: #008bf7;" />
        </linearGradient>
        <path
            class="st17"
            d="M323.6,204.5l1.7,3.5c0.1,0.1,0.2,0.2,0.3,0.2l3.9,0.6c0.3,0,0.5,0.5,0.2,0.7l-2.8,2.7
		c-0.1,0.1-0.1,0.2-0.1,0.4l0.7,3.8c0.1,0.3-0.3,0.6-0.6,0.4l-3.5-1.8c-0.1-0.1-0.3-0.1-0.4,0l-3.5,1.8c-0.3,0.2-0.6-0.1-0.6-0.4
		l0.7-3.8c0-0.1,0-0.3-0.1-0.4l-2.8-2.7c-0.2-0.2-0.1-0.6,0.2-0.7l3.9-0.6c0.1,0,0.2-0.1,0.3-0.2l1.7-3.5
		C323,204.2,323.4,204.2,323.6,204.5z"
        />
        <linearGradient
            id="market-ios-SVGID_9_"
            gradientUnits="userSpaceOnUse"
            x1="314.9557"
            y1="206.557"
            x2="404.9708"
            y2="221.4"
        >
            <stop offset="0" style="stop-color: #00ceff;" />
            <stop offset="1" style="stop-color: #008bf7;" />
        </linearGradient>
        <path
            class="st18"
            d="M341.7,204.5l1.7,3.5c0.1,0.1,0.2,0.2,0.3,0.2l3.9,0.6c0.3,0,0.5,0.5,0.2,0.7l-2.8,2.7
		c-0.1,0.1-0.1,0.2-0.1,0.4l0.7,3.8c0.1,0.3-0.3,0.6-0.6,0.4l-3.5-1.8c-0.1-0.1-0.3-0.1-0.4,0l-3.5,1.8c-0.3,0.2-0.6-0.1-0.6-0.4
		l0.7-3.8c0-0.1,0-0.3-0.1-0.4l-2.8-2.7c-0.2-0.2-0.1-0.6,0.2-0.7l3.9-0.6c0.1,0,0.2-0.1,0.3-0.2l1.7-3.5
		C341.1,204.2,341.5,204.2,341.7,204.5z"
        />
        <linearGradient
            id="market-ios-SVGID_10_"
            gradientUnits="userSpaceOnUse"
            x1="315.4355"
            y1="203.6467"
            x2="405.4507"
            y2="218.4896"
        >
            <stop offset="0" style="stop-color: #00ceff;" />
            <stop offset="1" style="stop-color: #008bf7;" />
        </linearGradient>
        <path
            class="st19"
            d="M359.8,204.5l1.7,3.5c0.1,0.1,0.2,0.2,0.3,0.2l3.9,0.6c0.3,0,0.5,0.5,0.2,0.7l-2.8,2.7
		c-0.1,0.1-0.1,0.2-0.1,0.4l0.7,3.8c0.1,0.3-0.3,0.6-0.6,0.4l-3.5-1.8c-0.1-0.1-0.3-0.1-0.4,0l-3.5,1.8c-0.3,0.2-0.6-0.1-0.6-0.4
		l0.7-3.8c0-0.1,0-0.3-0.1-0.4l-2.8-2.7c-0.2-0.2-0.1-0.6,0.2-0.7l3.9-0.6c0.1,0,0.2-0.1,0.3-0.2l1.7-3.5
		C359.2,204.2,359.7,204.2,359.8,204.5z"
        />
        <linearGradient
            id="market-ios-SVGID_11_"
            gradientUnits="userSpaceOnUse"
            x1="315.9155"
            y1="200.7364"
            x2="405.9306"
            y2="215.5793"
        >
            <stop offset="0" style="stop-color: #00ceff;" />
            <stop offset="1" style="stop-color: #008bf7;" />
        </linearGradient>
        <path
            class="st20"
            d="M378,204.5l1.7,3.5c0.1,0.1,0.2,0.2,0.3,0.2l3.9,0.6c0.3,0,0.5,0.5,0.2,0.7l-2.8,2.7
		c-0.1,0.1-0.1,0.2-0.1,0.4l0.7,3.8c0.1,0.3-0.3,0.6-0.6,0.4l-3.5-1.8c-0.1-0.1-0.3-0.1-0.4,0l-3.5,1.8c-0.3,0.2-0.6-0.1-0.6-0.4
		l0.7-3.8c0-0.1,0-0.3-0.1-0.4l-2.8-2.7c-0.2-0.2-0.1-0.6,0.2-0.7l3.9-0.6c0.1,0,0.2-0.1,0.3-0.2l1.7-3.5
		C377.4,204.2,377.8,204.2,378,204.5z"
        />
        <linearGradient
            id="market-ios-SVGID_12_"
            gradientUnits="userSpaceOnUse"
            x1="316.3954"
            y1="197.826"
            x2="406.4105"
            y2="212.669"
        >
            <stop offset="0" style="stop-color: #00ceff;" />
            <stop offset="1" style="stop-color: #008bf7;" />
        </linearGradient>
        <path
            class="st21"
            d="M396.1,204.5l1.7,3.5c0.1,0.1,0.2,0.2,0.3,0.2l3.9,0.6c0.3,0,0.5,0.5,0.2,0.7l-2.8,2.7
		c-0.1,0.1-0.1,0.2-0.1,0.4l0.7,3.8c0.1,0.3-0.3,0.6-0.6,0.4l-3.5-1.8c-0.1-0.1-0.3-0.1-0.4,0l-3.5,1.8c-0.3,0.2-0.6-0.1-0.6-0.4
		l0.7-3.8c0-0.1,0-0.3-0.1-0.4l-2.8-2.7c-0.2-0.2-0.1-0.6,0.2-0.7l3.9-0.6c0.1,0,0.2-0.1,0.3-0.2l1.7-3.5
		C395.5,204.2,395.9,204.2,396.1,204.5z"
        />
    </g>
</svg>
